<?xml version="1.0" encoding="utf-8"?>
<!-- Generator: Adobe Illustrator 27.5.0, SVG Export Plug-In . SVG Version: 6.00 Build 0)  -->
<svg version="1.1" id="Layer_1" xmlns="http://www.w3.org/2000/svg" xmlns:xlink="http://www.w3.org/1999/xlink" x="0px" y="0px"
	 width="195.1px" height="56px" viewBox="0 0 195.1 56" style="enable-background:new 0 0 195.1 56;" xml:space="preserve">
<style type="text/css">
	.st0{fill:url(#Path_83289_00000150783766899886587940000016671178596881491118_);}
	.st1{fill:url(#Path_83290_00000063621173431122896690000005982621996211115143_);}
	.st2{fill:url(#Path_83291_00000093159930109999407560000012204216180057569460_);}
	.st3{fill:url(#Path_83292_00000182497681681318300430000000903845710586015630_);}
	.st4{opacity:0.32;fill:url(#Path_83293_00000022550474944237585850000004255760686081335431_);enable-background:new    ;}
	.st5{opacity:0.14;fill:url(#Path_83213_00000145049988985370925800000004872673834363526845_);enable-background:new    ;}
	.st6{enable-background:new    ;}
</style>
<g id="Group_161503" transform="translate(-87.929 -518)">
	<g id="Group_161499" transform="translate(87.929 526.786) rotate(-1)">
		
			<linearGradient id="Path_83289_00000069374107980877645190000008407250064484296323_" gradientUnits="userSpaceOnUse" x1="-832.566" y1="532.0212" x2="-831.566" y2="532.0212" gradientTransform="matrix(22.5079 0.6931 0.3929 -39.707 18530.3438 21721.8164)">
			<stop  offset="0" style="stop-color:#3D0056"/>
			<stop  offset="1" style="stop-color:#FF0BA2"/>
		</linearGradient>
		<path id="Path_83289" style="fill:url(#Path_83289_00000069374107980877645190000008407250064484296323_);" d="M16,0l6.5,0
			L9.2,26.1l6.7,13.6l-7.9,0c-1.2,0-2.2-0.7-2.8-1.7l-4.7-9.6c-0.7-1.4-0.7-3.1,0-4.6L11.2,2.9C12.2,1.1,14,0,16,0z"/>
		
			<linearGradient id="Path_83290_00000110434654207076995550000004969028059341877931_" gradientUnits="userSpaceOnUse" x1="-832.0817" y1="531.9014" x2="-831.4927" y2="532.3594" gradientTransform="matrix(22.5079 0.6931 0.3929 -39.707 18530.3438 21721.8164)">
			<stop  offset="0" style="stop-color:#3D0056"/>
			<stop  offset="1" style="stop-color:#E33FC5"/>
		</linearGradient>
		<path id="Path_83290" style="fill:url(#Path_83290_00000110434654207076995550000004969028059341877931_);" d="M16,0l6.5,0
			L9.2,26.1l6.7,13.6l-7.9,0c-1.2,0-2.2-0.7-2.8-1.7l-4.7-9.6c-0.7-1.4-0.7-3.1,0-4.6L11.2,2.9C12.2,1.1,14,0,16,0z"/>
		
			<linearGradient id="Path_83291_00000114766721689900140230000012702301619172532904_" gradientUnits="userSpaceOnUse" x1="-816.1173" y1="531.7544" x2="-816.1173" y2="530.7544" gradientTransform="matrix(15.837 0.642 0.2764 -36.7804 12785.7529 20084.998)">
			<stop  offset="0" style="stop-color:#DF38FF"/>
			<stop  offset="1" style="stop-color:#FF39FF"/>
		</linearGradient>
		<path id="Path_83291" style="fill:url(#Path_83291_00000114766721689900140230000012702301619172532904_);" d="M11.2,2.9
			C5.9,13.3,5.5,18.6,9.2,26.1l6.7,13.6l-7.9,0c-1.2,0-2.2-0.7-2.8-1.7l-4.7-9.6c-0.7-1.4-0.7-3.1,0-4.6L11.2,2.9z"/>
		
			<linearGradient id="Path_83292_00000106131793195417486720000013657927710101999232_" gradientUnits="userSpaceOnUse" x1="-816.8746" y1="531.0193" x2="-815.1606" y2="531.3572" gradientTransform="matrix(15.837 0.642 0.2764 -36.7804 12785.7529 20084.998)">
			<stop  offset="0" style="stop-color:#9E0082"/>
			<stop  offset="1" style="stop-color:#FF39FF;stop-opacity:0"/>
		</linearGradient>
		<path id="Path_83292" style="fill:url(#Path_83292_00000106131793195417486720000013657927710101999232_);" d="M11.2,2.9
			C5.9,13.3,5.5,18.6,9.2,26.1l6.7,13.6l-7.9,0c-1.2,0-2.2-0.7-2.8-1.7l-4.7-9.6c-0.7-1.4-0.7-3.1,0-4.6L11.2,2.9z"/>
		
			<linearGradient id="Path_83293_00000106131274577383658390000008588933231052601484_" gradientUnits="userSpaceOnUse" x1="-779.4161" y1="526.6699" x2="-777.7091" y2="527.1209" gradientTransform="matrix(11.6986 0.3804 0.2042 -21.7967 9222.0713 11704.624)">
			<stop  offset="0" style="stop-color:#8A0BFF"/>
			<stop  offset="0.999" style="stop-color:#2A0056;stop-opacity:0"/>
		</linearGradient>
		
			<path id="Path_83293" style="opacity:0.32;fill:url(#Path_83293_00000106131274577383658390000008588933231052601484_);enable-background:new    ;" d="
			M0.6,23.8l3-5.9c-0.1,3.5,0.7,7,2.4,10l5.8,11.8H8c-1.2,0-2.2-0.7-2.8-1.7l-4.7-9.6C-0.2,26.9-0.2,25.2,0.6,23.8z"/>
	</g>
	
		<linearGradient id="Path_83213_00000180347559232657778000000004968164980496015273_" gradientUnits="userSpaceOnUse" x1="-735.1329" y1="1073.9833" x2="-734.9989" y2="1073.6993" gradientTransform="matrix(22.9678 0 0 -40.509 16994.3691 44048.5078)">
		<stop  offset="0" style="stop-color:#8A0BFF;stop-opacity:0"/>
		<stop  offset="1" style="stop-color:#2A0056"/>
	</linearGradient>
	
		<path id="Path_83213" style="opacity:0.14;fill:url(#Path_83213_00000180347559232657778000000004968164980496015273_);enable-background:new    ;" d="
		M106.3,526.2h-6.6l13.6,26.6l-6.8,13.9h8c1.2,0,2.3-0.7,2.8-1.8l4.8-9.8c0.7-1.5,0.7-3.2,0-4.7l-10.9-21.3
		C110.2,527.3,108.3,526.2,106.3,526.2z"/>
	<g class="st6">
		<path d="M134.4,543.1c0.9-1.7,2.1-3,3.7-3.9c1.6-0.9,3.4-1.4,5.4-1.4c2.1,0,3.9,0.5,5.4,1.4c1.5,1,2.6,2.2,3.3,3.7v-4.8h2.8V560
			h-2.8v-4.8c-0.7,1.5-1.8,2.7-3.3,3.7c-1.5,1-3.3,1.5-5.4,1.5c-2,0-3.8-0.5-5.3-1.4c-1.6-0.9-2.8-2.3-3.7-4
			c-0.9-1.7-1.3-3.7-1.3-5.9S133.5,544.8,134.4,543.1z M151,544.4c-0.7-1.3-1.7-2.4-2.9-3.1c-1.2-0.7-2.6-1.1-4.1-1.1
			c-1.5,0-2.9,0.3-4.2,1c-1.2,0.7-2.2,1.7-2.9,3s-1.1,2.9-1.1,4.7c0,1.8,0.4,3.4,1.1,4.7s1.7,2.4,2.9,3.1c1.2,0.7,2.6,1.1,4.2,1.1
			c1.5,0,2.9-0.4,4.1-1.1c1.2-0.7,2.2-1.7,2.9-3.1c0.7-1.3,1.1-2.9,1.1-4.6S151.7,545.8,151,544.4z"/>
		<path d="M172.5,557.3l7.4-19.1h3l-8.8,21.8h-3.2l-8.8-21.8h3L172.5,557.3z"/>
		<path d="M190.1,533.4c-0.4-0.4-0.6-0.9-0.6-1.5c0-0.6,0.2-1.1,0.6-1.5c0.4-0.4,0.9-0.6,1.4-0.6c0.6,0,1,0.2,1.4,0.6
			c0.4,0.4,0.6,0.9,0.6,1.5c0,0.6-0.2,1.1-0.6,1.5c-0.4,0.4-0.9,0.6-1.4,0.6C191,534,190.5,533.8,190.1,533.4z M192.9,538.2V560
			h-2.8v-21.8H192.9z"/>
		<path d="M210.5,557.3l7.4-19.1h3l-8.8,21.8h-3.2l-8.8-21.8h3L210.5,557.3z"/>
		<path d="M228.2,543.1c0.9-1.7,2.1-3,3.7-3.9c1.6-0.9,3.4-1.4,5.4-1.4c2.1,0,3.9,0.5,5.4,1.4c1.5,1,2.6,2.2,3.3,3.7v-4.8h2.8V560
			h-2.8v-4.8c-0.7,1.5-1.8,2.7-3.3,3.7c-1.5,1-3.3,1.5-5.4,1.5c-2,0-3.8-0.5-5.3-1.4c-1.6-0.9-2.8-2.3-3.7-4
			c-0.9-1.7-1.3-3.7-1.3-5.9S227.3,544.8,228.2,543.1z M244.9,544.4c-0.7-1.3-1.7-2.4-2.9-3.1c-1.2-0.7-2.6-1.1-4.1-1.1
			c-1.5,0-2.9,0.3-4.2,1c-1.2,0.7-2.2,1.7-2.9,3c-0.7,1.3-1.1,2.9-1.1,4.7c0,1.8,0.4,3.4,1.1,4.7c0.7,1.3,1.7,2.4,2.9,3.1
			c1.2,0.7,2.6,1.1,4.2,1.1c1.5,0,2.9-0.4,4.1-1.1s2.2-1.7,2.9-3.1c0.7-1.3,1.1-2.9,1.1-4.6S245.6,545.8,244.9,544.4z"/>
		<path d="M275.3,540.2c1.7,1.6,2.5,4,2.5,7V560H275v-12.5c0-2.4-0.6-4.2-1.8-5.4c-1.2-1.3-2.8-1.9-4.9-1.9c-2.1,0-3.8,0.7-5,2
			c-1.3,1.3-1.9,3.3-1.9,5.9V560h-2.8v-21.8h2.8v3.7c0.7-1.3,1.7-2.4,3-3.1s2.8-1.1,4.4-1.1C271.5,537.8,273.6,538.6,275.3,540.2z"
			/>
	</g>
</g>
</svg>
