<?xml version="1.0" encoding="utf-8"?>
<!-- Generator: Adobe Illustrator 27.5.0, SVG Export Plug-In . SVG Version: 6.00 Build 0)  -->
<svg version="1.1" xmlns="http://www.w3.org/2000/svg" xmlns:xlink="http://www.w3.org/1999/xlink" x="0px" y="0px" width="500px"
	 height="500px" viewBox="0 0 500 500" style="enable-background:new 0 0 500 500;" xml:space="preserve">
<style type="text/css">
	.st0{display:none;}
	.st1{display:inline;fill:#FFFFFF;}
	.st2{display:inline;fill:#FFE081;}
	.st3{fill:#0EA2BD;}
	.st4{fill:#D1794E;}
	.st5{fill:#E18F5F;}
	.st6{fill:#171E21;}
	.st7{fill:none;stroke:#6C3B2E;stroke-width:0.9328;stroke-linecap:round;stroke-linejoin:round;stroke-miterlimit:10;}
	.st8{fill:#FFFFFF;}
	.st9{fill:#4B2A2B;}
	.st10{fill:#3956E5;}
	.st11{fill:#5469FA;}
	.st12{fill:none;stroke:#3956E5;stroke-width:0.9328;stroke-miterlimit:10;}
	.st13{fill:#1E1E1C;}
	.st14{fill:#AD9AE5;}
	.st15{fill:#917ACE;}
	.st16{fill:#BEA8EF;}
	.st17{fill:none;stroke:#917ACE;stroke-width:1.0238;stroke-miterlimit:10;}
	.st18{fill:#492A2A;}
	.st19{fill:#EA347A;}
	.st20{fill:#FF4684;}
	.st21{fill:none;stroke:#DD2C74;stroke-width:0.9355;stroke-miterlimit:10;}
	.st22{fill:#241E84;}
	.st23{fill:#3B2FA0;}
	.st24{fill:none;stroke:#161670;stroke-width:0.9355;stroke-miterlimit:10;}
	.st25{fill:none;stroke:#6C3B2E;stroke-width:0.9355;stroke-linecap:round;stroke-linejoin:round;stroke-miterlimit:10;}
</style>

<g id="OBJECTS">
	<g>
		<path class="st3" d="M129.78,202.64c0.04,2.14,1.86,52.91-38.52,61.73c-46.7,10.2-67.72,31.88-65.24,60.38
			c2.49,28.49,27.02,124.29,178.32,138.39c148.76,13.87,186.49-73.78,205.78-115.02c18.29-39.1,40.1-123.42-0.91-153.94
			c-41.01-30.53-62.53,17.95-109.81-34.27C246.59,101.56,127.92,112.41,129.78,202.64z"/>
		<path class="st3" d="M392.46,433.88c0,0-4.61-2.08-12.85,3.78c-9.7,6.89-21.07,20.83-9.61,28.21
			c11.46,7.38,23.09-6.78,25.84-10.16C401.25,449.07,403.24,436.92,392.46,433.88z"/>
		<path class="st3" d="M34.6,168.42c0,0-20.52,24.89-11.4,50.4c9.12,25.51,42.17,37.95,70.09-3.73
			c27.92-41.69-6.84-64.71-6.84-64.71S58.53,132.95,34.6,168.42z"/>
	</g>
	<g>
		<g>
			<path class="st4" d="M382.72,237.64c-0.75,2.85,0.96,5.77,3.82,6.52c2.85,0.75,5.77-0.96,6.52-3.82
				c0.75-2.85-0.96-5.77-3.82-6.52C386.38,233.08,383.46,234.78,382.72,237.64z"/>
			<g>
				<g>
					<path class="st5" d="M409.02,273.6l8.05-23.8L399,249.38l-5.99,19.88c-1.33,4.39,0.05,7.65,4.44,8.98l1.37,0.42
						C403.22,279.99,407.69,277.99,409.02,273.6z"/>
				</g>
				<path class="st4" d="M414.67,251.14c0,0-4,21.18-20.44,14.01l3.15-10.92L414.67,251.14z"/>
			</g>
			<path class="st5" d="M396.31,262.4l0.57,0.15c8.46,2.21,17.11-2.86,19.32-11.32l4.52-17.3c0.57-2.19-0.74-4.43-2.93-5
				l-20.16-5.27c-3.91-1.02-7.91,1.32-8.93,5.23l-3.71,14.18C382.78,251.53,387.84,260.19,396.31,262.4z"/>
			<g>
				<path class="st6" d="M400.6,240.22c-0.13,0.7,0.34,1.37,1.04,1.5c0.7,0.13,1.37-0.34,1.5-1.04c0.13-0.7-0.34-1.37-1.04-1.5
					C401.4,239.05,400.72,239.52,400.6,240.22z"/>
				<path class="st6" d="M389.92,237.4c-0.13,0.7,0.34,1.37,1.04,1.5c0.7,0.13,1.37-0.34,1.5-1.04c0.13-0.7-0.34-1.37-1.04-1.5
					C390.72,236.23,390.05,236.7,389.92,237.4z"/>
				<path class="st7" d="M394.4,239.79l-1.25,3.85c0,0-0.27,1.95,2.61,1.91"/>
				<path class="st6" d="M406.17,237.66c-0.08-0.01-0.16-0.02-0.24-0.05l-5.6-1.69c-0.63-0.19-0.98-0.85-0.79-1.47
					c0.19-0.63,0.84-0.98,1.47-0.79l5.6,1.69c0.63,0.19,0.98,0.85,0.79,1.47C407.24,237.37,406.72,237.71,406.17,237.66z"/>
				<path class="st6" d="M393.36,234.06c-0.08-0.01-0.16-0.02-0.24-0.05l-3.43-1.03c-0.63-0.19-0.98-0.85-0.79-1.47
					c0.19-0.63,0.85-0.98,1.47-0.79l3.43,1.03c0.63,0.19,0.98,0.85,0.79,1.47C394.43,233.77,393.9,234.11,393.36,234.06z"/>
				<path class="st8" d="M389.87,246.65c0.26,0.01,11.16,3.04,11.16,3.04s-4.22,3.6-8.2,1.54
					C388.86,249.18,389.87,246.65,389.87,246.65z"/>
			</g>
			<path class="st9" d="M419.74,222.95l-9.21-3.16c0,0-3.45-11.04-14.14-11.84c-9.33-0.7-13.18,12.77-7.97,17.09
				c5.21,4.32,16.66,3.35,18.55,2.59c1.89-0.77,8.3,0.71,6.11,4.61c-2.78,4.96,0.48,6.8,0.48,6.8l-2.18,8.79l3.57,0.89l1.53-6.18
				l4.29,1.06l2.87-11.59C424.43,228.79,424.56,224.65,419.74,222.95z"/>
			<path class="st5" d="M414.03,244.93c-0.75,2.85,0.96,5.77,3.82,6.52c2.85,0.75,5.77-0.96,6.52-3.82
				c0.75-2.85-0.96-5.77-3.82-6.52C417.69,240.36,414.77,242.07,414.03,244.93z"/>
		</g>
		<g>
			<g>
				<g>
					<polygon class="st8" points="324.88,454.82 317.61,479.27 305.91,472.35 309.21,458.38 					"/>
					<g>
						<path class="st6" d="M305.29,472.28l-11.12,6.02l-7.29,1.3c-3.35,0.6-5.9,3.33-6.27,6.72l-0.17,1.58l42.32,0.46l-2.83-15.75
							L305.29,472.28z"/>
						<polyline points="322.91,488.64 280.27,488.17 280.35,484.68 322.98,485.15 322.91,488.64 						"/>
					</g>
				</g>
				<path class="st10" d="M368.73,348.35l-39.97,31.33c-5.63,4.25-10.42,9.7-14.17,16.11l-12.23,67.02l26.17,2.1l10.63-51.65
					l55.02-43.17L368.73,348.35z"/>
			</g>
			<g>
				<g>
					<polygon class="st8" points="294.02,413.02 287,438.1 274.53,434.47 278.68,414.44 					"/>
					<g>
						<path class="st6" d="M274.02,433.22l-10.75,6.65l-7.2,1.72c-3.31,0.79-5.7,3.67-5.88,7.07l-0.08,1.59l41.56-1.38l-3.01-16.16
							L274.02,433.22z"/>
						<polyline points="291.83,449.13 249.95,450.52 249.82,447.04 291.7,445.64 291.83,449.13 						"/>
					</g>
				</g>
				<g>
					<path class="st11" d="M359.83,339.68l-66.84,7.43c-4.86,0.54-8.82,4.13-9.83,8.91l-12.69,62.99c0,0,26.93,4.91,26.92,4.89
						c-0.01-0.02,9.79-45.79,9.79-45.79l39.74,5.81c0,0,41.7,4.62,58.29-27.8L359.83,339.68z"/>
					<path class="st12" d="M379.95,346.98c0,0-4,30.39-76.6,16.05c-3.09-0.61-6.12,1.33-6.94,4.38l-11.29,45.82"/>
					<line class="st12" x1="299.23" y1="415.25" x2="272.01" y2="411.35"/>
				</g>
			</g>
		</g>
		<g>
			<g>
				<g>
					<g>
						<g>
							<path class="st5" d="M309.07,238.79c-2.2,4.47,0.17,11.25,4.64,13.45c4.47,2.2,9.88,0.37,12.08-4.1
								c2.2-4.47-0.17-11.25-4.64-13.45C316.68,232.49,311.27,234.32,309.07,238.79z"/>
						</g>
						<polyline class="st5" points="336.77,260.88 326.09,246.07 318.83,252.4 329.98,269.01 						"/>
					</g>
					<g>
						<path class="st13" d="M314.73,252.24l6.89-4.34c1.66-1.04,2.15-3.23,1.11-4.89l-12.3-19.51c-1.04-1.66-3.23-2.15-4.89-1.11
							l-6.89,4.35c-1.66,1.04-2.15,3.23-1.11,4.89l12.3,19.51C310.89,252.79,313.08,253.29,314.73,252.24z"/>
						<path class="st8" d="M314.63,248.3l5.08-3.2c0.84-0.53,1.1-1.65,0.56-2.49l-10.96-17.39c-0.53-0.84-1.65-1.1-2.49-0.56
							l-5.08,3.2c-0.84,0.53-1.1,1.64-0.56,2.49l10.96,17.39C312.67,248.58,313.79,248.84,314.63,248.3z"/>
					</g>
					<path class="st5" d="M314.99,240.66c2.09,1.67,9.29,4.84,9.29,4.84l-0.89-8.31l-6.08-0.47c-0.65-0.1-1.36,0-1.94,0.29l0,0
						C313.95,237.71,313.75,239.66,314.99,240.66z"/>
				</g>
				<path class="st14" d="M348.97,302.14c1.71,0.38,3.47,0.44,5.2,0.19l36.04-6.85c5.71-0.61,9.84-5.73,9.23-11.44l0,0
					c-0.61-5.71-5.73-9.84-11.44-9.23l-35.96,6.94L348.97,302.14z"/>
				<path class="st14" d="M348.97,302.14l11.46-17.36l-27.7-34.74l-16.6,11.15l28.91,37.31c1.07,1.38,2.39,2.56,3.88,3.47"/>
			</g>
			<path class="st15" d="M393.49,267.68l-4.72,1.1c-0.69,0.22-1.14,0.88-1.09,1.61l0.34,4.43l3.98-2.17L393.49,267.68z"/>
			<path class="st16" d="M417.57,314.65c1.82-19.58-0.12-34.93-5.49-40.88c-2.41-2.67-5.42-3.41-7.6-3.62
				c-7.32-0.72-14.94-0.83-20.59,7.78c-9.62,14.65-28.77,60.04-28.77,60.04l50.09,18.15C405.21,356.13,416.11,330.39,417.57,314.65z
				"/>
			<g>
				<g>
					<g>
						<path class="st5" d="M444.58,381.67c5.39-3.25,5.08-10.04,2.15-14.07c-2.93-4.03-8.57-4.92-12.6-1.99
							c-4.03,2.93-5.08,10.04-2.15,14.07C434.91,383.71,440.31,384.24,444.58,381.67z"/>
					</g>
					<polyline class="st5" points="430.34,349.23 435.5,367.44 445.26,365.99 442.73,347.36 					"/>
				</g>
				<path class="st16" d="M429.1,361.82l19.88-2.14l-8.23-46.47c-0.31-1.72-0.92-3.37-1.82-4.88c0,0-11.37-19.33-20.15-30.66
					c-3.52-4.53-9.07-6.89-14.1-4.14l0,0c-5.04,2.75-7.36,11.1-4.61,16.13l20.21,30.54L429.1,361.82z"/>
				<line class="st17" x1="417.41" y1="316.13" x2="403.91" y2="293.95"/>
			</g>
			<path class="st15" d="M413.13,270.75l1.07,2.48c0.39,0.9-0.28,1.9-1.25,1.89l-21-0.23c-0.85-0.01-1.49-0.8-1.3-1.64l0.75-3.45
				c0.14-0.65,0.74-1.1,1.4-1.06l19.18,1.2C412.48,269.97,412.93,270.28,413.13,270.75z"/>
		</g>
	</g>
	<g>
		<g>
			<path class="st18" d="M155.81,130.53c0,0,15.69,49.17-26.72,66.36c-42.41,17.19-15.05-43.96-15.05-43.96L155.81,130.53z"/>
			<path class="st18" d="M122.82,125.88c0,0-4.39,19.06-38.88,27.57c-26.26,6.48-11.72,58.6,33.79,50.41l19.91-37.93l8.6-44.31
				L122.82,125.88z"/>
		</g>
		<g>
			<g>
				<path class="st5" d="M154.4,177.23l24.61,18.57c2.95,2.23,3.57,6.41,1.39,9.4l0,0c-2.18,2.99-6.36,3.68-9.38,1.54l-28.95-20.42
					L154.4,177.23z"/>
				<path class="st19" d="M133.74,169.49c0,0,5.96-7.51,16.22-0.42c12.29,8.5,15.96,12.41,15.96,12.41l-16.73,14.58
					C149.19,196.06,124.01,181.73,133.74,169.49z"/>
				<polygon class="st5" points="214.58,188.87 169.68,195.61 175.64,207.98 214.22,197.03 				"/>
				<g>
					<path class="st5" d="M212.4,196.41c0,0,2.09,2.01,6.94,1.93c2.08-0.03,4.06-0.4,5.63-0.81c2.04-0.53,3.47-2.36,3.46-4.47
						l-0.13-5.42c-0.02-2.43,1.83-7.98-4.37-7.89c-5.53,0.08-9.43,5.9-12.38,9.56L212.4,196.41z"/>
					<g>
						<path class="st13" d="M227.18,195.72l-8.3-1.99c-1.99-0.48-3.22-2.48-2.75-4.48l5.63-23.49c0.48-1.99,2.48-3.22,4.48-2.75
							l8.3,1.99c1.99,0.48,3.22,2.48,2.74,4.48l-5.63,23.49C231.18,194.96,229.17,196.19,227.18,195.72z"/>
						<path class="st8" d="M225.96,191.78l-6.12-1.47c-1.01-0.24-1.64-1.26-1.4-2.28l5.02-20.94c0.24-1.01,1.26-1.64,2.28-1.4
							l6.12,1.47c1.01,0.24,1.64,1.26,1.4,2.28l-5.02,20.93C227.99,191.4,226.97,192.02,225.96,191.78z"/>
					</g>
					<path class="st5" d="M220.25,188.65c-1.03,1.48-5.07,4.9-5.07,4.9l-1.01-5.53l3.83-1.47c0.4-0.19,0.88-0.26,1.3-0.19l0,0
						C220.36,186.56,220.86,187.77,220.25,188.65z"/>
				</g>
			</g>
			<path class="st20" d="M141.02,164.47c0,0,7.56,0.3,12.54,9.74c0,0,12.27,11.13-1.36,19.65l-6.27,25.29l-28.86-4.35l-1.44-38.24
				c-1.48-7.06,3.46-13.89,10.63-14.64C130.4,161.48,135.4,161.97,141.02,164.47z"/>
			<g>
				<path class="st5" d="M119.5,183.91l-24.8,18.32c-2.98,2.2-7.17,1.6-9.41-1.34l0,0c-2.25-2.94-1.72-7.14,1.19-9.43l27.81-21.95
					L119.5,183.91z"/>
				<path class="st20" d="M132.8,166.3c0,0,5.51,7.85-4.21,15.67c-11.65,9.37-12.23,9.82-12.23,9.82L99.4,176.62
					C99.4,176.62,123.83,153.49,132.8,166.3z"/>
				<polygon class="st5" points="71.1,237.49 97.77,197.53 84.62,193.6 65.31,231.73 				"/>
				<g>
					<g>
						<path class="st5" d="M71.9,247.17c4.87-2.93,4.59-9.07,1.94-12.71c-2.65-3.64-7.75-4.45-11.39-1.8
							c-3.64,2.65-4.59,9.07-1.95,12.71C63.16,249.01,68.04,249.49,71.9,247.17z"/>
					</g>
				</g>
				<path class="st21" d="M116.36,191.79c0,0,7.45-1.96,12.23-9.82"/>
			</g>
		</g>
		<g>
			<g>
				<g>
					<polygon class="st5" points="101.14,357.97 88.12,379.67 96.59,389.19 109.09,371.88 					"/>
					<g>
						<path class="st6" d="M99.44,386.11l-0.18,12.85l2.81,6.88c1.29,3.16,0.34,6.79-2.33,8.92l-1.25,0.99l-23.16-34.68l14.93-6.99
							L99.44,386.11z"/>
						<polyline points="75.02,381.08 98.36,416.03 101.27,414.1 77.93,379.15 75.02,381.08 						"/>
					</g>
				</g>
				<path class="st22" d="M145.92,219.14l10.57,74.11c0.55,3.89-0.17,7.85-2.06,11.3l-41.63,75.85l-23.84-16.8l40.39-69.21
					l-15.18-53.19L145.92,219.14z"/>
			</g>
			<g>
				<g>
					<polygon class="st5" points="43.38,313.6 19.93,325.09 28.88,335.37 42.06,329.57 					"/>
					<g>
						<path class="st6" d="M29.43,336.29l-2.77,12.38l0.74,7.39c0.34,3.4-1.6,6.61-4.77,7.89l-1.48,0.6L8.8,324.71l16.3-2.46
							L29.43,336.29z"/>
						<polyline points="8.5,324.63 20.95,364.77 24.29,363.75 11.85,323.61 8.5,324.63 						"/>
					</g>
				</g>
				<g>
					<path class="st23" d="M117.06,214.79c0,0-14.75,5.93-12.81,23.2l-8.67,44.65l-67.86,32.01l14.99,22.67l72.41-32.15
						c4.62-2.97,7.78-7.74,8.69-13.16l8.12-47.66l15.67-13.36l-1.69-11.84L117.06,214.79z"/>
					<polyline class="st24" points="125.51,281.85 131.94,244.34 141.22,236.12 					"/>
				</g>
			</g>
		</g>
		<g>
			<path class="st18" d="M166.44,136.19c-2,12.24-13.55,20.55-25.8,18.54c-12.24-2-20.55-13.55-18.54-25.8
				c2-12.24,13.55-20.55,25.8-18.54S168.44,123.95,166.44,136.19z"/>
			<g>
				<g>
					<g>
						<path class="st5" d="M130.9,161.58l3.9-19.67l14.1,2.8l-3.9,19.67c-0.77,3.89-4.56,6.42-8.45,5.65l0,0
							C132.66,169.25,130.13,165.47,130.9,161.58z"/>
					</g>
					<path class="st4" d="M134.09,142.86c0,0-1.79,17.15,11.31,19.41l1.66-8.44L134.09,142.86z"/>
				</g>
				<path class="st20" d="M144.79,165.5c0,0-9.17,3.87-13.94-3.66l-2.31,11.89l14.48,0.89L144.79,165.5z"/>
			</g>
			<path class="st4" d="M155.66,141.87c-0.59,3.05,1.4,6,4.45,6.59c3.05,0.59,6-1.4,6.59-4.45c0.59-3.05-1.4-6-4.45-6.59
				C159.2,136.83,156.25,138.82,155.66,141.87z"/>
			<path class="st5" d="M143.97,158.48L143.97,158.48c8.48,1.64,16.4-2.12,18.05-10.6l2.83-14.57c1.21-6.25-4.34-14.17-8.03-14.88
				l-14.33,1.17c-3.69-0.72-7.29,1.72-8.01,5.41l-2.82,14.52C130.02,148,136.83,157.1,143.97,158.48z"/>
			<g>
				<path class="st6" d="M148.88,138.5c-0.18,0.66-0.86,1.06-1.52,0.88c-0.66-0.18-1.05-0.86-0.88-1.52
					c0.18-0.66,0.86-1.05,1.52-0.88C148.67,137.15,149.06,137.83,148.88,138.5z"/>
				<path class="st6" d="M160.07,140.57c-0.18,0.66-0.86,1.05-1.52,0.88c-0.66-0.18-1.06-0.86-0.88-1.52
					c0.18-0.66,0.86-1.06,1.52-0.88C159.85,139.23,160.25,139.91,160.07,140.57z"/>
				<path class="st25" d="M153.7,142.1l0.71,2.29c0.18,0.57-0.05,1.22-0.59,1.47c-0.47,0.22-1.19,0.27-2.28-0.27"/>
				<path class="st6" d="M145.09,133.97c0.07,0.03,0.15,0.05,0.22,0.06l5.57,0.84c0.62,0.09,1.2-0.33,1.29-0.96
					c0.09-0.62-0.33-1.2-0.96-1.29l-5.57-0.84c-0.62-0.09-1.2,0.33-1.29,0.96C144.27,133.28,144.59,133.79,145.09,133.97z"/>
				<path class="st6" d="M158.45,136.25c0.07,0.03,0.15,0.05,0.22,0.06l3.4,0.51c0.62,0.09,1.2-0.33,1.29-0.96
					c0.09-0.62-0.33-1.2-0.96-1.29l-3.4-0.51c-0.62-0.09-1.2,0.33-1.29,0.96C157.64,135.56,157.96,136.07,158.45,136.25z"/>
				<path class="st8" d="M146.16,147.35l9.33,1.62C155.49,148.98,149.16,153.68,146.16,147.35z"/>
			</g>
			<g>
				<path class="st18" d="M160.89,122.26c0,0-20.69,25.4-35.58,5.87c0,0,2.01-6.96,13.24-12.19c11.24-5.23,18.43,1.67,18.43,1.67
					L160.89,122.26z"/>
				<path class="st18" d="M154.32,122.11c0,0,10.46,3.46,10.24,12.68c0,0,4.34-11.18-8.38-17.33L154.32,122.11z"/>
			</g>
			<path class="st5" d="M125.31,135.98c-0.59,3.05,1.4,6,4.45,6.59c3.05,0.59,6-1.4,6.59-4.45c0.59-3.05-1.4-6-4.45-6.59
				C128.85,130.94,125.9,132.93,125.31,135.98z"/>
		</g>
	</g>
	<g>
		<path class="st20" d="M200.25,77.21l-83.81,0.12c-3.29,0-5.96-2.66-5.96-5.95l-0.07-50.79c0-3.29,2.66-5.96,5.95-5.97l83.82-0.12
			c3.29,0,5.96,2.66,5.96,5.95l0.07,50.79C206.21,74.54,203.54,77.21,200.25,77.21z"/>
		<path class="st20" d="M124.72,48.53l0.06,44.82c0,2.61,1.7,4.03,2.81,2.35l31.04-47.21L124.72,48.53z"/>
	</g>
	<g>
		<path class="st20" d="M458.15,149.03l-104.13,0.15c-3.29,0-5.96-2.66-5.96-5.95l-0.07-50.79c0-3.29,2.66-5.96,5.95-5.97
			l104.13-0.15c3.29,0,5.96,2.66,5.96,5.95l0.07,50.79C464.1,146.36,461.44,149.03,458.15,149.03z"/>
		<path class="st20" d="M365.33,120.37l0.06,44.82c0,2.61,2.06,4.03,3.41,2.34l37.65-47.22L365.33,120.37z"/>
	</g>
	<g>
		<path class="st8" d="M138.57,50.89h-3.5l-6.35-9.68c-0.19-0.29-0.34-0.54-0.47-0.75c-0.13-0.21-0.23-0.39-0.3-0.53h-0.04
			c0.03,0.27,0.05,0.62,0.06,1.03c0.01,0.42,0.02,0.9,0.02,1.46v8.46h-3.28v-15.4h3.74l6.11,9.38c0.14,0.21,0.27,0.42,0.4,0.63
			c0.13,0.21,0.26,0.42,0.37,0.63h0.04c-0.03-0.18-0.05-0.45-0.06-0.8c-0.01-0.35-0.02-0.79-0.02-1.32v-8.52h3.28V50.89z"/>
		<path class="st8" d="M151.33,50.89h-9.24v-15.4h8.88v2.83h-5.41v3.43h5.04v2.81h-5.04v3.52h5.77V50.89z"/>
		<path class="st8" d="M163.04,50.89h-9.24v-15.4h8.88v2.83h-5.41v3.43h5.04v2.81h-5.04v3.52h5.77V50.89z"/>
		<path class="st8" d="M165.51,50.89v-15.4h5.46c2.74,0,4.79,0.62,6.16,1.87c1.37,1.25,2.05,3.13,2.05,5.63
			c0,2.4-0.75,4.31-2.24,5.75c-1.49,1.43-3.48,2.15-5.97,2.15H165.51z M168.98,38.31v9.76h1.72c1.5,0,2.68-0.45,3.54-1.35
			c0.86-0.9,1.28-2.13,1.28-3.68c0-1.47-0.42-2.62-1.27-3.46c-0.85-0.84-2.04-1.26-3.57-1.26H168.98z"/>
		<path class="st8" d="M180.47,49.87l1.44-2.7c0.77,0.46,1.44,0.77,2.01,0.93s1.17,0.24,1.8,0.24c0.83,0,1.44-0.16,1.84-0.48
			c0.39-0.32,0.59-0.75,0.59-1.31c0-0.53-0.16-0.94-0.47-1.22c-0.32-0.28-0.9-0.52-1.74-0.71c-1.72-0.39-2.97-0.95-3.75-1.68
			c-0.78-0.72-1.17-1.73-1.17-3.03c0-1.3,0.5-2.41,1.51-3.32s2.42-1.37,4.24-1.37c0.76,0,1.5,0.09,2.23,0.26s1.42,0.42,2.08,0.75
			l-1.3,2.74c-0.59-0.34-1.15-0.58-1.68-0.72c-0.52-0.14-1.01-0.21-1.46-0.21c-0.69,0-1.24,0.14-1.62,0.41
			c-0.39,0.27-0.58,0.66-0.58,1.17c0,0.47,0.18,0.82,0.53,1.07c0.35,0.25,0.99,0.48,1.91,0.69c1.67,0.38,2.88,0.95,3.62,1.7
			c0.74,0.75,1.12,1.81,1.12,3.18c0,1.46-0.51,2.64-1.54,3.54c-1.03,0.9-2.52,1.35-4.47,1.35c-0.85,0-1.74-0.11-2.67-0.34
			C182.01,50.6,181.19,50.28,180.47,49.87z"/>
	</g>
	<g>
		<path class="st8" d="M370.94,124.48c-2.51,0-4.55-0.82-6.13-2.45c-1.58-1.63-2.37-3.76-2.37-6.38c0-2.77,0.8-5,2.41-6.71
			c1.6-1.71,3.73-2.56,6.37-2.56c2.5,0,4.52,0.82,6.06,2.45s2.31,3.79,2.31,6.47c0,2.75-0.8,4.97-2.4,6.65
			C375.59,123.64,373.51,124.48,370.94,124.48z M371.01,121.07c1.36,0,2.44-0.49,3.24-1.47c0.8-0.98,1.2-2.34,1.2-4.08
			c0-1.81-0.39-3.23-1.16-4.24c-0.77-1.01-1.83-1.51-3.17-1.51c-1.38,0-2.48,0.52-3.3,1.56c-0.81,1.04-1.22,2.41-1.22,4.12
			c0,1.73,0.41,3.1,1.22,4.11C368.62,120.57,369.69,121.07,371.01,121.07z"/>
		<path class="st8" d="M392.62,109.88h-6.18v4.3h5.68v3.2h-5.68v6.8h-3.94v-17.5h10.12V109.88z"/>
		<path class="st8" d="M405.62,109.88h-6.18v4.3h5.68v3.2h-5.68v6.8h-3.94v-17.5h10.12V109.88z"/>
		<path class="st8" d="M419,124.17h-10.5v-17.5h10.09v3.21h-6.15v3.89h5.73v3.2h-5.73v4H419V124.17z"/>
		<path class="st8" d="M436.02,124.17h-4.46l-2.33-4.31c-0.37-0.7-0.75-1.23-1.13-1.59c-0.38-0.36-0.81-0.56-1.3-0.61h-1.06v6.51
			h-3.94v-17.5h6.25c2.12,0,3.72,0.41,4.78,1.24c1.06,0.83,1.59,2.06,1.59,3.72c0,1.16-0.34,2.17-1.03,3.01
			c-0.68,0.84-1.62,1.46-2.81,1.86v0.05c0.52,0.16,1.01,0.5,1.46,1.03c0.45,0.52,0.84,1.06,1.15,1.62L436.02,124.17z M425.75,109.62
			v5.07h1.71c0.85,0,1.54-0.26,2.05-0.77s0.77-1.15,0.77-1.9c0-0.8-0.23-1.4-0.68-1.79c-0.46-0.4-1.14-0.6-2.06-0.6H425.75z"/>
		<path class="st8" d="M436.7,123.01l1.64-3.06c0.88,0.52,1.64,0.87,2.29,1.06c0.65,0.18,1.33,0.27,2.04,0.27
			c0.94,0,1.64-0.18,2.09-0.54c0.45-0.36,0.67-0.86,0.67-1.48c0-0.6-0.18-1.06-0.54-1.39c-0.36-0.32-1.02-0.59-1.98-0.81
			c-1.95-0.45-3.37-1.08-4.26-1.9c-0.89-0.82-1.33-1.97-1.33-3.44c0-1.48,0.57-2.74,1.72-3.78c1.15-1.04,2.75-1.56,4.82-1.56
			c0.86,0,1.71,0.1,2.54,0.29s1.62,0.48,2.37,0.85l-1.48,3.11c-0.68-0.38-1.31-0.65-1.9-0.82c-0.59-0.16-1.15-0.24-1.66-0.24
			c-0.79,0-1.4,0.15-1.84,0.46c-0.44,0.31-0.66,0.75-0.66,1.33c0,0.53,0.2,0.94,0.6,1.22c0.4,0.29,1.12,0.55,2.17,0.78
			c1.9,0.43,3.27,1.07,4.11,1.93s1.27,2.06,1.27,3.61c0,1.66-0.58,3-1.75,4.03c-1.17,1.03-2.86,1.54-5.08,1.54
			c-0.97,0-1.98-0.13-3.04-0.38C438.44,123.84,437.51,123.48,436.7,123.01z"/>
	</g>
	<g>
		<path class="st8" d="M195.42,267.68h-5.68v-25.21h5.68V267.68z"/>
		<path class="st8" d="M218.83,247.1h-7.19v20.58h-5.69V247.1h-7.15v-4.62h20.04V247.1z"/>
		<path class="st8" d="M226.66,249.93h-4.22v-7.77h4.22V249.93z"/>
		<path class="st8" d="M230.73,266.01l2.35-4.41c1.27,0.75,2.36,1.26,3.3,1.52s1.91,0.4,2.94,0.4c1.36,0,2.36-0.26,3.01-0.78
			c0.64-0.52,0.97-1.23,0.97-2.13c0-0.87-0.26-1.53-0.77-2s-1.46-0.85-2.85-1.17c-2.81-0.64-4.86-1.56-6.13-2.74
			s-1.92-2.84-1.92-4.96c0-2.13,0.83-3.95,2.48-5.44c1.65-1.49,3.97-2.24,6.94-2.24c1.24,0,2.46,0.14,3.66,0.42
			c1.19,0.28,2.33,0.69,3.41,1.23l-2.13,4.48c-0.97-0.55-1.89-0.94-2.74-1.18c-0.86-0.23-1.65-0.35-2.39-0.35
			c-1.14,0-2.02,0.22-2.65,0.67c-0.63,0.45-0.95,1.08-0.95,1.92c0,0.76,0.29,1.35,0.87,1.76c0.58,0.41,1.62,0.79,3.12,1.13
			c2.73,0.62,4.7,1.55,5.92,2.78s1.83,2.96,1.83,5.2c0,2.39-0.84,4.32-2.52,5.8s-4.12,2.21-7.32,2.21c-1.4,0-2.85-0.18-4.38-0.55
			S231.91,266.68,230.73,266.01z"/>
		<path class="st8" d="M260.19,267.68l9.17-25.21h6.73l8.96,25.21h-6.19l-1.71-5.26h-9.14l-1.69,5.26H260.19z M269.26,258h6.59
			l-2.78-8.75c-0.11-0.35-0.19-0.65-0.25-0.9s-0.12-0.56-0.17-0.95h-0.14c-0.06,0.35-0.12,0.66-0.18,0.91
			c-0.06,0.26-0.15,0.54-0.26,0.86L269.26,258z"/>
		<path class="st8" d="M209.34,310.88h-5.61V295.8c0-0.81,0.02-1.66,0.05-2.57c0.04-0.9,0.09-1.84,0.16-2.83h-0.14
			c-0.15,0.77-0.29,1.44-0.41,1.99c-0.12,0.56-0.25,1.01-0.38,1.34l-5.91,17.14h-4.64l-6.01-16.96c-0.07-0.23-0.18-0.64-0.32-1.23
			c-0.14-0.58-0.3-1.35-0.47-2.28h-0.16c0.08,1.24,0.14,2.41,0.18,3.5s0.05,2.1,0.05,3.04v13.94h-5.11v-25.21h8.31l5.15,14.94
			c0.21,0.55,0.38,1.1,0.52,1.65s0.26,1.11,0.38,1.67h0.11c0.16-0.63,0.33-1.23,0.49-1.79s0.33-1.08,0.51-1.56l5.15-14.91h8.1
			V310.88z"/>
		<path class="st8" d="M212.37,310.88l9.17-25.21h6.73l8.96,25.21h-6.19l-1.71-5.26h-9.14l-1.69,5.26H212.37z M221.44,301.19h6.59
			l-2.78-8.75c-0.11-0.35-0.19-0.65-0.25-0.9s-0.12-0.56-0.17-0.95h-0.14c-0.06,0.35-0.12,0.66-0.18,0.91s-0.15,0.54-0.25,0.86
			L221.44,301.19z"/>
		<path class="st8" d="M255.48,290.3h-7.19v20.58h-5.69V290.3h-7.15v-4.62h20.04V290.3z"/>
		<path class="st8" d="M276.17,309.65c-1.32,0.59-2.61,1.01-3.85,1.27c-1.24,0.26-2.58,0.4-4.03,0.4c-3.93,0-7.02-1.1-9.27-3.3
			s-3.38-5.34-3.38-9.43c0-3.83,1.23-7.01,3.69-9.54s5.71-3.8,9.74-3.8c1.35,0,2.55,0.09,3.61,0.28c1.06,0.19,2.16,0.49,3.31,0.91
			l-1.67,4.59c-0.87-0.32-1.7-0.54-2.5-0.69c-0.8-0.14-1.66-0.21-2.58-0.21c-2.06,0-3.85,0.72-5.36,2.17s-2.27,3.41-2.27,5.88
			c0,2.55,0.66,4.55,1.98,5.99c1.32,1.44,3.13,2.16,5.42,2.16c0.6,0,1.36-0.1,2.28-0.29c0.92-0.19,1.87-0.51,2.86-0.96
			L276.17,309.65z"/>
		<path class="st8" d="M301.5,310.88h-5.7v-10.26h-10.44v10.26h-5.68v-25.21h5.68v10.05h10.44v-10.05h5.7V310.88z"/>
	</g>
</g>
<g id="DESIGNED_BY_FREEPIK">
</g>
</svg>
